<?xml version="1.0" standalone="no"?>
<!DOCTYPE svg PUBLIC "-//W3C//DTD SVG 20010904//EN"
 "http://www.w3.org/TR/2001/REC-SVG-20010904/DTD/svg10.dtd">
<svg version="1.0" xmlns="http://www.w3.org/2000/svg"
 width="512.000000pt" height="512.000000pt" viewBox="0 0 512.000000 512.000000"
 preserveAspectRatio="xMidYMid meet">
<metadata>
Created by potrace 1.11, written by Peter Selinger 2001-2013
</metadata>
<g transform="translate(0.000000,512.000000) scale(0.100000,-0.100000)"
fill="#000000" stroke="none">
<path d="M1350 5100 c-36 -10 -87 -31 -115 -46 -67 -37 -174 -147 -207 -214
-55 -110 -58 -143 -58 -569 0 -372 -1 -391 -19 -400 -48 -26 -75 -115 -60
-195 4 -22 10 -59 13 -81 18 -119 39 -186 66 -214 31 -31 82 -43 140 -35 l36
5 -1 -78 c-1 -71 4 -116 20 -197 8 -39 44 -124 67 -158 10 -14 18 -29 18 -33
0 -16 92 -135 156 -201 64 -66 164 -152 201 -173 13 -7 16 -28 16 -103 -1
-185 -17 -202 -259 -268 l-179 -50 -305 0 c-297 0 -307 -1 -350 -22 -59 -31
-84 -80 -81 -159 l2 -58 -49 -25 c-148 -75 -261 -186 -322 -319 -52 -111 -59
-160 -65 -426 -12 -589 -14 -899 -5 -929 13 -49 69 -112 114 -133 39 -18 116
-19 1925 -19 l1883 0 47 25 c25 14 60 45 76 68 l30 42 -1 350 c-1 568 -7 795
-20 875 -34 197 -197 392 -405 484 l-53 23 3 54 c3 60 -20 104 -72 143 -27 20
-44 21 -345 27 -255 4 -326 8 -362 21 -25 9 -92 28 -150 43 -58 15 -119 36
-137 47 -52 31 -73 88 -73 200 l0 96 52 38 c79 56 208 181 246 236 9 13 19 25
22 28 15 12 87 138 111 194 l26 61 321 0 c356 1 331 6 313 -65 -103 -404 -104
-409 -88 -434 18 -27 57 -37 84 -22 19 11 217 161 240 181 6 5 108 84 226 174
l215 165 328 1 c327 1 329 1 379 25 65 32 129 98 152 158 17 44 18 90 18 667
l0 620 -23 42 c-35 66 -79 110 -140 140 l-57 28 -870 1 c-478 1 -882 2 -897 3
-16 0 -28 7 -28 15 0 22 -37 99 -71 146 -46 64 -114 124 -179 159 -113 60
-127 61 -812 60 -573 -1 -628 -2 -688 -19z"/>
</g>
</svg>
